<?xml version="1.0" encoding="utf-8"?>
<!-- Generator: Adobe Illustrator 24.3.0, SVG Export Plug-In . SVG Version: 6.00 Build 0)  -->
<svg version="1.1" id="Layer_1" xmlns="http://www.w3.org/2000/svg" xmlns:xlink="http://www.w3.org/1999/xlink" x="0px" y="0px"
	 viewBox="0 0 127 63" style="enable-background:new 0 0 127 63;" xml:space="preserve">
<style type="text/css">
	.st0{fill:url(#SVGID_1_);}
	.st1{fill:url(#SVGID_2_);}
	.st2{fill:url(#SVGID_3_);}
	.st3{fill:url(#SVGID_4_);}
	.st4{fill:url(#SVGID_5_);}
	.st5{fill:url(#SVGID_6_);}
	.st6{fill:url(#SVGID_7_);}
	.st7{fill:url(#SVGID_8_);}
	.st8{fill:url(#SVGID_9_);}
	.st9{fill:url(#SVGID_10_);}
	.st10{fill:url(#SVGID_11_);}
	.st11{fill:url(#SVGID_12_);}
	.st12{fill:url(#SVGID_13_);}
	.st13{fill:url(#SVGID_14_);}
	.st14{fill:url(#SVGID_15_);}
	.st15{fill:url(#SVGID_16_);}
	.st16{fill:url(#SVGID_17_);}
	.st17{fill:url(#SVGID_18_);}
	.st18{fill:url(#SVGID_19_);}
	.st19{fill:url(#SVGID_20_);}
	.st20{fill:url(#SVGID_21_);}
	.st21{fill:url(#SVGID_22_);}
</style>
<g>
	<linearGradient id="SVGID_1_" gradientUnits="userSpaceOnUse" x1="44.9093" y1="200.1963" x2="68.2174" y2="200.1963">
		<stop  offset="0" style="stop-color:#F61059"/>
		<stop  offset="0.4665" style="stop-color:#F3103D"/>
		<stop  offset="1" style="stop-color:#F6103A"/>
	</linearGradient>
	<path class="st0" d="M68.09,190.41c-0.02-0.03-0.04-0.05-0.06-0.08c-0.31-0.56-0.62-1.11-0.94-1.67c-0.39-0.7-0.78-1.39-1.17-2.09
		c-0.17-0.31-0.38-0.41-0.71-0.33c-1.49,0.34-3.01,0.67-4.31,0.96c-1.3,0.28-2.61,0.57-3.91,0.85c-1.12,0.24-2.23,0.48-3.35,0.73
		c-0.79,0.17-1.59,0.35-2.39,0.53c-0.71,0.16-1.41,0.31-2.12,0.47l-0.55,0.12c-1.07,0.23-2.18,0.48-3.27,0.7
		c-0.19,0.04-0.31,0.11-0.37,0.22c-0.08,0.14-0.03,0.32,0.01,0.44c0.1,0.27,0.19,0.55,0.28,0.83c0.05,0.14,0.1,0.29,0.15,0.43
		l0.68,1.98c0.56,1.65,1.13,3.29,1.69,4.94c0.25,0.72,0.49,1.44,0.74,2.17c0.25,0.72,0.49,1.45,0.74,2.17
		c0.32,0.94,0.65,1.88,0.97,2.83c0.32,0.94,0.65,1.89,0.97,2.83c0.54,1.59,1.03,3.03,1.49,4.41c0.05,0.16,0.13,0.26,0.23,0.3
		c0.05,0.02,0.09,0.03,0.14,0.03c0.09,0,0.19-0.03,0.27-0.07c1.07-0.44,2.15-0.86,3.23-1.29l0.95-0.37
		c0.64-0.26,1.28-0.51,1.93-0.76c0.12-0.05,0.29-0.13,0.36-0.29c0.05-0.12,0.03-0.25-0.05-0.41c-0.07-0.14-0.12-0.29-0.17-0.44
		c-0.04-0.12-0.09-0.24-0.14-0.36c-0.28-0.62-0.33-0.66-0.99-0.42c-0.36,0.13-0.69,0.23-1.04,0.02c-0.3-0.18-0.43-0.46-0.56-0.79
		l-0.3-0.78c-0.41-1.08-0.82-2.16-1.24-3.24c-0.39-1.01-0.78-2.01-1.17-3.02c-0.49-1.27-0.98-2.53-1.47-3.8
		c-0.36-0.92-0.71-1.84-1.07-2.77c-0.43-1.11-0.86-2.22-1.28-3.33c-0.12-0.3-0.13-0.52-0.05-0.68c0.08-0.16,0.27-0.27,0.57-0.34
		c1.73-0.4,3.45-0.8,5.18-1.2c1.46-0.34,2.92-0.67,4.39-1c0.47-0.11,0.95-0.21,1.38-0.3l0.39-0.09c0.46,0,0.75,0.18,0.96,0.57
		c0.23,0.45,0.47,0.89,0.7,1.33c0.2,0.39,0.41,0.77,0.61,1.16c0.09,0.17,0.21,0.33,0.5,0.27c0.29-0.06,0.47-0.12,0.55-0.27
		c0.07-0.15,0-0.34-0.14-0.6c-0.05-0.1-0.07-0.18-0.05-0.23c0.02-0.05,0.09-0.09,0.2-0.13c0.05-0.01,0.09-0.02,0.14-0.03
		c0.04-0.01,0.09-0.02,0.13-0.03c0.68-0.2,1.1-0.28,1.36,0.41c0.02,0.06,0.07,0.13,0.2,0.17c0.22,0.07,0.57,0,0.77-0.15
		c0.09-0.07,0.14-0.14,0.15-0.22C68.23,190.59,68.15,190.49,68.09,190.41z M47.67,193.63c-0.21,0.05-0.35-0.02-0.42-0.21
		c-0.15-0.39-0.32-0.82-0.46-1.23c-0.02-0.05-0.01-0.09,0.01-0.13c0.03-0.05,0.08-0.09,0.14-0.11c0.37-0.11,0.75-0.2,1.12-0.29
		l0.41-0.1c0.2,0.01,0.31,0.08,0.37,0.23l0.13,0.35c0.11,0.28,0.22,0.57,0.32,0.85c0.02,0.07,0.03,0.13,0,0.17
		c-0.03,0.06-0.11,0.09-0.17,0.11C48.58,193.41,48.12,193.53,47.67,193.63z M54.83,208.37c0.08,0,0.18,0.03,0.24,0.14
		c0.31,0.55,0.51,1.16,0.7,1.74l0.06,0.18c-0.02,0.24-0.07,0.34-0.2,0.39c-0.56,0.23-1.07,0.43-1.6,0.62
		c-0.12,0.05-0.24,0.05-0.33,0.01c-0.09-0.04-0.16-0.13-0.21-0.25c-0.26-0.71-0.46-1.25-0.62-1.76c-0.07-0.2,0.02-0.37,0.22-0.44
		c0.52-0.2,1.05-0.4,1.57-0.59C54.71,208.38,54.77,208.37,54.83,208.37z M53.72,204.85c0.24,0.55,0.43,1.06,0.6,1.56
		c0.04,0.12,0.04,0.22,0,0.3c-0.04,0.09-0.14,0.16-0.28,0.2c-0.56,0.19-1.02,0.35-1.44,0.51c-0.21,0.08-0.36,0.04-0.45-0.13
		c-0.25-0.44-0.39-0.93-0.52-1.36c-0.04-0.13-0.08-0.25-0.11-0.36c-0.01-0.3,0.08-0.39,0.23-0.44l0.52-0.17
		c0.32-0.11,0.64-0.21,0.96-0.32C53.39,204.59,53.61,204.59,53.72,204.85z M52.09,201.06c0.09,0,0.18,0.03,0.24,0.13
		c0.3,0.52,0.47,1.1,0.62,1.56c0.02,0.31-0.07,0.36-0.17,0.39l-0.41,0.14c-0.36,0.12-0.73,0.25-1.1,0.36
		c-0.17,0.05-0.39,0.05-0.5-0.25l-0.07-0.19c-0.15-0.41-0.31-0.83-0.45-1.24c-0.03-0.08-0.05-0.19,0-0.28
		c0.03-0.07,0.1-0.12,0.2-0.15c0.48-0.16,0.99-0.31,1.52-0.46C51.99,201.07,52.04,201.06,52.09,201.06z M51.14,197.96
		c0.16,0.4,0.32,0.84,0.48,1.28c0.04,0.11,0.04,0.21,0.01,0.28c-0.04,0.07-0.12,0.13-0.23,0.17c-0.48,0.15-0.97,0.3-1.46,0.43
		c-0.21,0.05-0.36-0.03-0.44-0.24c-0.16-0.44-0.31-0.88-0.44-1.29c-0.05-0.13-0.05-0.24,0-0.31c0.04-0.08,0.14-0.14,0.28-0.17
		c0.16-0.04,0.31-0.09,0.47-0.13c0.33-0.1,0.66-0.2,1.03-0.25C50.93,197.73,51.07,197.78,51.14,197.96z M50.43,196.04
		c0.03,0.08,0.03,0.17,0,0.23c-0.02,0.05-0.07,0.08-0.13,0.1c-0.37,0.11-0.75,0.22-1.12,0.32c-0.16,0.04-0.32,0.09-0.47,0.13
		c-0.21-0.02-0.31-0.09-0.36-0.24l-0.18-0.52c-0.09-0.24-0.17-0.49-0.26-0.73c-0.04-0.1-0.04-0.19,0-0.25
		c0.03-0.06,0.1-0.1,0.2-0.13c0.42-0.11,0.87-0.23,1.39-0.35c0.04-0.01,0.08-0.02,0.13-0.02c0.12,0,0.24,0.05,0.31,0.21
		C50.14,195.26,50.3,195.66,50.43,196.04z M65.81,189.22c-0.29,0.08-0.65,0.19-0.92,0.21c-0.02,0-0.04,0-0.05,0
		c-0.22,0-0.32-0.04-0.37-0.14c-0.21-0.38-0.4-0.73-0.57-1.06c-0.01-0.03-0.03-0.07-0.02-0.1c0.01-0.02,0.05-0.05,0.16-0.09
		c0.33-0.09,0.66-0.17,0.97-0.25c0.03-0.01,0.07-0.01,0.1-0.01c0.14,0,0.26,0.08,0.35,0.24c0.11,0.19,0.22,0.39,0.33,0.59
		c0.05,0.1,0.11,0.2,0.16,0.29c0.05,0.1,0.07,0.17,0.05,0.21C65.97,189.16,65.88,189.19,65.81,189.22z"/>
	<linearGradient id="SVGID_2_" gradientUnits="userSpaceOnUse" x1="35.8874" y1="195.5611" x2="59.9273" y2="195.5611">
		<stop  offset="0" style="stop-color:#F61059"/>
		<stop  offset="0.4665" style="stop-color:#F3103D"/>
		<stop  offset="1" style="stop-color:#F6103A"/>
	</linearGradient>
	<path class="st1" d="M48.85,204.89c-0.05-0.2-0.13-0.33-0.25-0.4c-0.13-0.07-0.29-0.06-0.52,0.02c-0.07,0.03-0.15,0.05-0.21,0.08
		c-0.14,0.06-0.3,0.12-0.37,0.11H47.5c-0.52-0.01-0.81-0.16-0.98-0.51c-0.16-0.33-0.27-0.68-0.37-1.03
		c-0.04-0.12-0.07-0.24-0.11-0.36c-0.54-1.69-1.06-3.38-1.59-5.07l-0.7-2.25c-0.34-1.1-0.69-2.2-1.03-3.3
		c-0.47-1.5-0.94-3-1.41-4.51c-0.07-0.22-0.07-0.39,0-0.51c0.07-0.13,0.22-0.23,0.46-0.3c0.56-0.16,1.13-0.26,1.69-0.35
		c0.3-0.05,0.61-0.1,0.91-0.16c1.01-0.2,2.04-0.38,3.03-0.56c0.63-0.11,1.26-0.22,1.89-0.34c0.83-0.15,1.67-0.32,2.5-0.48
		c0.68-0.13,1.36-0.26,2.04-0.39c0.44-0.08,0.77,0.08,0.96,0.47c0.21,0.43,0.41,0.86,0.61,1.29c0.17,0.36,0.34,0.72,0.51,1.08
		c0.07,0.15,0.19,0.26,0.35,0.31c0.2,0.06,0.44,0.03,0.67-0.1c0.11-0.06,0.17-0.13,0.19-0.22c0.03-0.13-0.05-0.25-0.11-0.34
		c-0.02-0.03-0.04-0.06-0.06-0.1c-0.07-0.15-0.07-0.21-0.05-0.24c0.02-0.04,0.09-0.07,0.2-0.09c0.21-0.04,0.41-0.08,0.62-0.12
		c0.14-0.03,0.28-0.06,0.42-0.08c0.2-0.04,0.37,0.03,0.47,0.24c0.01,0.03,0.03,0.05,0.04,0.08c0.04,0.09,0.08,0.17,0.15,0.25
		c0.26,0.29,0.55,0.17,0.76,0.08c0.07-0.03,0.14-0.06,0.2-0.07c0.11-0.03,0.15-0.08,0.17-0.13c0.05-0.12-0.02-0.25-0.07-0.34
		l-0.02-0.03c-0.31-0.62-0.62-1.24-0.93-1.85s-0.62-1.23-0.93-1.85c-0.14-0.27-0.31-0.35-0.6-0.3c-1.38,0.26-2.86,0.53-4.65,0.85
		c-1.19,0.21-2.37,0.42-3.56,0.63c-0.99,0.18-1.99,0.35-2.99,0.53c-1.11,0.2-2.22,0.4-3.33,0.6l-2.22,0.4
		c-1.44,0.26-2.87,0.51-4.31,0.77c-0.18,0.03-0.3,0.1-0.36,0.2c-0.06,0.1-0.07,0.23-0.02,0.39c0.11,0.39,0.21,0.77,0.32,1.16
		l0.1,0.39c0.52,1.95,1.05,3.9,1.57,5.86c0.2,0.75,0.4,1.51,0.6,2.26c0.2,0.77,0.41,1.54,0.61,2.32c0.32,1.18,0.63,2.36,0.95,3.55
		l0.66,2.46c0.08,0.3,0.16,0.6,0.24,0.9c0.22,0.79,0.44,1.61,0.64,2.43c0.05,0.2,0.13,0.33,0.24,0.39c0.06,0.03,0.12,0.05,0.18,0.05
		c0.1,0,0.2-0.03,0.33-0.07c0.96-0.33,1.92-0.64,2.88-0.96c0.43-0.14,0.85-0.28,1.28-0.42c0.24-0.08,0.48-0.16,0.72-0.24
		c0.49-0.16,1-0.34,1.51-0.49c0.2-0.06,0.33-0.16,0.39-0.28c0.06-0.12,0.05-0.27-0.02-0.46C49.02,205.45,48.91,205.17,48.85,204.89z
		 M55.85,184.22l0.17-0.03c0.34-0.06,0.67-0.12,1.01-0.18c0.02,0,0.03,0,0.05,0c0.1,0,0.18,0.04,0.22,0.12
		c0.21,0.37,0.39,0.75,0.52,1.03c0.02,0.05,0.01,0.07,0.01,0.07c-0.02,0.03-0.06,0.06-0.12,0.07c-0.3,0.07-0.61,0.14-0.91,0.21
		l-0.27,0.06c-0.02-0.01-0.05-0.01-0.07-0.02c-0.06-0.02-0.11-0.03-0.15-0.05c-0.13-0.08-0.59-1.01-0.58-1.17
		C55.73,184.28,55.76,184.24,55.85,184.22z M38.4,189.17c-0.22,0.03-0.36-0.07-0.43-0.32l-0.04-0.15c-0.07-0.26-0.14-0.53-0.22-0.8
		c-0.06-0.19,0.02-0.25,0.12-0.28c0.52-0.18,1.06-0.26,1.52-0.33c0.37-0.03,0.49,0.1,0.56,0.34c0.03,0.11,0.06,0.22,0.09,0.33
		c0.05,0.18,0.1,0.36,0.16,0.54c0.04,0.1,0.04,0.18,0.01,0.23c-0.03,0.05-0.09,0.09-0.18,0.11
		C39.48,188.98,38.94,189.09,38.4,189.17z M39.22,192.19c-0.21,0-0.32-0.09-0.37-0.29c-0.04-0.15-0.08-0.3-0.12-0.45
		c-0.06-0.21-0.12-0.43-0.18-0.64c-0.03-0.1-0.02-0.18,0.01-0.24c0.04-0.06,0.11-0.1,0.22-0.13c0.58-0.14,1.05-0.24,1.48-0.32
		c0.05-0.01,0.09-0.01,0.13-0.01c0.19,0,0.31,0.1,0.36,0.32c0.05,0.21,0.12,0.42,0.19,0.62c0.04,0.13,0.08,0.26,0.12,0.39
		c0.03,0.1,0.03,0.19-0.01,0.26c-0.03,0.05-0.07,0.08-0.13,0.1c-0.4,0.11-0.82,0.2-1.22,0.29c-0.16,0.03-0.31,0.07-0.47,0.1
		C39.22,192.19,39.22,192.19,39.22,192.19z M39.71,195.09c-0.1-0.34-0.22-0.73-0.32-1.12c-0.07-0.26,0-0.4,0.25-0.48
		c0.56-0.17,1.12-0.26,1.55-0.33c0.04-0.01,0.08-0.01,0.11-0.01c0.22,0,0.34,0.11,0.4,0.36c0.08,0.34,0.18,0.66,0.3,1.02
		c0.04,0.11,0.04,0.21,0,0.28c-0.03,0.05-0.07,0.09-0.15,0.11c-0.43,0.13-0.87,0.24-1.28,0.34c-0.15,0.04-0.29,0.07-0.42,0.11
		C39.83,195.35,39.75,195.22,39.71,195.09z M40.72,198.57c-0.17-0.46-0.36-0.98-0.41-1.51c-0.02-0.2,0.06-0.31,0.25-0.35l0.6-0.15
		c0.32-0.08,0.64-0.15,0.96-0.23c0.26-0.06,0.42,0.02,0.5,0.26c0.17,0.51,0.3,0.93,0.41,1.34c0.05,0.19-0.12,0.29-0.27,0.33
		c-0.53,0.16-1.06,0.3-1.69,0.46C40.93,198.75,40.78,198.72,40.72,198.57z M41.68,202.08c-0.16-0.43-0.29-0.9-0.42-1.53
		c-0.04-0.19,0.04-0.33,0.21-0.39c0.42-0.14,0.86-0.26,1.28-0.38c0.16-0.05,0.33-0.09,0.49-0.14c0.19,0.01,0.32,0.1,0.38,0.28
		c0.16,0.49,0.32,0.96,0.46,1.45c0.05,0.17-0.03,0.31-0.2,0.39c-0.38,0.17-0.8,0.27-1.19,0.38c-0.21,0.05-0.42,0.11-0.62,0.17
		C41.86,202.36,41.73,202.22,41.68,202.08z M44.89,205.54l-0.55,0.18c-0.36,0.12-0.72,0.24-1.09,0.35c-0.15,0.05-0.28,0.05-0.37,0
		c-0.08-0.04-0.13-0.12-0.17-0.23l-0.02-0.06c-0.16-0.53-0.33-1.08-0.45-1.62c-0.06-0.26,0.23-0.37,0.32-0.39
		c0.4-0.12,0.81-0.24,1.21-0.36l0.4-0.11c0.05-0.01,0.12-0.03,0.19-0.03c0.13,0,0.26,0.05,0.32,0.21c0.15,0.38,0.27,0.78,0.39,1.17
		c0.05,0.16,0.1,0.31,0.15,0.47C45.21,205.34,45.11,205.47,44.89,205.54z"/>
</g>
<g>
	<linearGradient id="SVGID_3_" gradientUnits="userSpaceOnUse" x1="59.7793" y1="198.4868" x2="69.2051" y2="198.4868">
		<stop  offset="0" style="stop-color:#F61059"/>
		<stop  offset="0.4665" style="stop-color:#F3103D"/>
		<stop  offset="1" style="stop-color:#F6103A"/>
	</linearGradient>
	<path class="st2" d="M59.78,202.9l0.58-8.83h2.32l1.77,6.13h0.1l1.77-6.13h2.32l0.58,8.83h-1.72l-0.4-6.35h-0.1l-1.81,6.35h-1.37
		l-1.82-6.35H61.9l-0.4,6.35H59.78z"/>
	<linearGradient id="SVGID_4_" gradientUnits="userSpaceOnUse" x1="72.3008" y1="199.3701" x2="78.7451" y2="199.3701">
		<stop  offset="0" style="stop-color:#F61059"/>
		<stop  offset="0.4665" style="stop-color:#F3103D"/>
		<stop  offset="1" style="stop-color:#F6103A"/>
	</linearGradient>
	<path class="st3" d="M75.52,203.06c-0.62,0-1.14-0.06-1.55-0.18c-0.42-0.12-0.75-0.32-0.99-0.59c-0.25-0.28-0.42-0.66-0.52-1.13
		s-0.16-1.07-0.16-1.79s0.05-1.31,0.16-1.79s0.28-0.85,0.52-1.13c0.24-0.28,0.57-0.48,0.99-0.59c0.41-0.12,0.93-0.18,1.55-0.18
		c0.63,0,1.15,0.06,1.57,0.18c0.41,0.12,0.74,0.32,0.98,0.59s0.41,0.65,0.52,1.12c0.1,0.47,0.16,1.07,0.16,1.79
		c0,0.72-0.05,1.31-0.16,1.79c-0.1,0.48-0.28,0.85-0.52,1.13c-0.24,0.28-0.57,0.48-0.99,0.59C76.67,203,76.14,203.06,75.52,203.06z
		 M74.14,201.69h2.13c0.25,0,0.43-0.03,0.52-0.08c0.09-0.05,0.13-0.15,0.13-0.29v-4.27h-2.13c-0.25,0-0.43,0.03-0.52,0.08
		c-0.09,0.05-0.13,0.15-0.13,0.29V201.69z"/>
	<linearGradient id="SVGID_5_" gradientUnits="userSpaceOnUse" x1="80.9766" y1="199.3701" x2="87.5762" y2="199.3701">
		<stop  offset="0" style="stop-color:#F61059"/>
		<stop  offset="0.4665" style="stop-color:#F3103D"/>
		<stop  offset="1" style="stop-color:#F6103A"/>
	</linearGradient>
	<path class="st4" d="M80.98,195.84h1.71l1.53,5.57h0.14l1.51-5.57h1.71l-1.98,7.07h-2.64L80.98,195.84z"/>
	<linearGradient id="SVGID_6_" gradientUnits="userSpaceOnUse" x1="90.0635" y1="197.8228" x2="92.085" y2="197.8228">
		<stop  offset="0" style="stop-color:#F61059"/>
		<stop  offset="0.4665" style="stop-color:#F3103D"/>
		<stop  offset="1" style="stop-color:#F6103A"/>
	</linearGradient>
	<path class="st5" d="M91.08,194.75c-0.4,0-0.66-0.07-0.8-0.21c-0.14-0.14-0.21-0.4-0.21-0.78c0-0.4,0.07-0.66,0.21-0.81
		c0.14-0.14,0.41-0.21,0.8-0.21c0.39,0,0.65,0.07,0.79,0.21c0.14,0.14,0.21,0.41,0.21,0.81c0,0.39-0.07,0.65-0.21,0.78
		C91.74,194.68,91.48,194.75,91.08,194.75z M90.21,195.99l1.74-0.24v7.15h-1.74V195.99z"/>
	<linearGradient id="SVGID_7_" gradientUnits="userSpaceOnUse" x1="95.25" y1="199.3701" x2="101.3555" y2="199.3701">
		<stop  offset="0" style="stop-color:#F61059"/>
		<stop  offset="0.4665" style="stop-color:#F3103D"/>
		<stop  offset="1" style="stop-color:#F6103A"/>
	</linearGradient>
	<path class="st6" d="M98.22,203.06c-0.56,0-1.03-0.06-1.41-0.18c-0.39-0.12-0.69-0.32-0.92-0.6c-0.23-0.28-0.39-0.65-0.49-1.13
		c-0.1-0.48-0.15-1.07-0.15-1.77c0-0.91,0.1-1.64,0.3-2.18c0.2-0.54,0.53-0.93,1-1.16c0.47-0.23,1.09-0.35,1.87-0.35
		c0.76,0,1.36,0.06,1.78,0.19c0.42,0.13,0.72,0.35,0.9,0.66c0.17,0.32,0.26,0.76,0.26,1.32c0,0.48-0.06,0.87-0.17,1.17
		s-0.32,0.53-0.62,0.69s-0.73,0.27-1.29,0.33c-0.56,0.06-1.29,0.09-2.19,0.09h-0.42v-1.03h1.98c0.44,0,0.74-0.05,0.9-0.16
		s0.24-0.31,0.24-0.62v-1.29h-1.57c-0.43,0-0.73,0.05-0.89,0.16s-0.24,0.31-0.24,0.61v3.79c0.19,0.05,0.39,0.08,0.61,0.11
		s0.48,0.04,0.79,0.04c0.39,0,0.77-0.03,1.14-0.08s0.81-0.15,1.31-0.27l0.23,1.24c-0.39,0.14-0.84,0.25-1.35,0.32
		C99.31,203.02,98.77,203.06,98.22,203.06z"/>
</g>
<g>
	<linearGradient id="SVGID_8_" gradientUnits="userSpaceOnUse" x1="59.6689" y1="206.7075" x2="61.6934" y2="206.7075">
		<stop  offset="0" style="stop-color:#F61059"/>
		<stop  offset="0.4665" style="stop-color:#F3103D"/>
		<stop  offset="1" style="stop-color:#F6103A"/>
	</linearGradient>
	<path class="st7" d="M60.27,208.16h-0.6v-2.9h0.6V208.16z M61.16,206.97H60.2v-0.52h0.96V206.97z M61.1,205.26h0.59v2.9H61.1
		V205.26z"/>
	<linearGradient id="SVGID_9_" gradientUnits="userSpaceOnUse" x1="67.1924" y1="206.7075" x2="69.4102" y2="206.7075">
		<stop  offset="0" style="stop-color:#F61059"/>
		<stop  offset="0.4665" style="stop-color:#F3103D"/>
		<stop  offset="1" style="stop-color:#F6103A"/>
	</linearGradient>
	<path class="st8" d="M67.19,206.71c0-0.3,0.02-0.55,0.05-0.75c0.03-0.2,0.09-0.35,0.17-0.46c0.08-0.11,0.2-0.19,0.34-0.24
		c0.14-0.05,0.33-0.07,0.54-0.07c0.22,0,0.4,0.02,0.54,0.07c0.14,0.05,0.26,0.13,0.34,0.24c0.08,0.11,0.14,0.27,0.17,0.46
		c0.03,0.2,0.05,0.45,0.05,0.75s-0.02,0.55-0.05,0.75c-0.04,0.19-0.09,0.35-0.17,0.46c-0.08,0.11-0.2,0.19-0.34,0.24
		s-0.33,0.07-0.54,0.07c-0.22,0-0.4-0.02-0.54-0.07c-0.14-0.05-0.26-0.13-0.34-0.24c-0.08-0.11-0.14-0.27-0.17-0.46
		C67.21,207.26,67.19,207.01,67.19,206.71z M67.84,207.64h0.6c0.12,0,0.21-0.02,0.26-0.07c0.05-0.04,0.07-0.12,0.07-0.23v-1.57
		h-0.61c-0.12,0-0.21,0.02-0.25,0.07c-0.05,0.04-0.07,0.12-0.07,0.23V207.64z"/>
	<linearGradient id="SVGID_10_" gradientUnits="userSpaceOnUse" x1="74.8447" y1="206.7075" x2="77.625" y2="206.7075">
		<stop  offset="0" style="stop-color:#F61059"/>
		<stop  offset="0.4665" style="stop-color:#F3103D"/>
		<stop  offset="1" style="stop-color:#F6103A"/>
	</linearGradient>
	<path class="st9" d="M74.84,208.16l0.16-2.9h0.78l0.44,1.83h0.03l0.44-1.83h0.78l0.16,2.9h-0.59l-0.1-1.85h-0.02l-0.44,1.85H76
		l-0.44-1.85h-0.02l-0.1,1.85H74.84z"/>
	<linearGradient id="SVGID_11_" gradientUnits="userSpaceOnUse" x1="83.1533" y1="206.7075" x2="84.7842" y2="206.7075">
		<stop  offset="0" style="stop-color:#F61059"/>
		<stop  offset="0.4665" style="stop-color:#F3103D"/>
		<stop  offset="1" style="stop-color:#F6103A"/>
	</linearGradient>
	<path class="st10" d="M83.75,206.96v0.62h1.03v0.57h-1.63v-2.9h1.63l-0.08,0.57h-0.96v0.62h0.88v0.51H83.75z"/>
</g>
<g>
	<linearGradient id="SVGID_12_" gradientUnits="userSpaceOnUse" x1="17.5014" y1="35.2056" x2="62.7162" y2="35.2056">
		<stop  offset="0" style="stop-color:#F61059"/>
		<stop  offset="0" style="stop-color:#0FB3C6"/>
		<stop  offset="1" style="stop-color:#4CE2B9"/>
	</linearGradient>
	<path class="st11" d="M62.47,15.75c-0.04-0.05-0.08-0.11-0.11-0.16c-0.6-1.11-1.21-2.21-1.82-3.32c-0.76-1.38-1.51-2.76-2.26-4.15
		c-0.33-0.61-0.74-0.81-1.37-0.65c-2.88,0.68-5.83,1.34-8.36,1.9c-2.53,0.57-5.06,1.13-7.58,1.69c-2.17,0.48-4.33,0.96-6.5,1.45
		c-1.54,0.35-3.09,0.69-4.63,1.05c-1.37,0.31-2.74,0.62-4.11,0.93l-1.07,0.24c-2.08,0.47-4.23,0.95-6.35,1.4
		c-0.38,0.08-0.61,0.22-0.73,0.43c-0.16,0.29-0.06,0.64,0.03,0.88c0.19,0.54,0.37,1.1,0.55,1.65c0.09,0.28,0.19,0.57,0.28,0.85
		l1.32,3.95c1.1,3.27,2.19,6.55,3.28,9.82c0.48,1.44,0.95,2.87,1.43,4.31c0.48,1.44,0.95,2.88,1.43,4.31
		c0.62,1.88,1.26,3.75,1.89,5.63c0.63,1.88,1.26,3.75,1.89,5.63c1.05,3.16,2,6.03,2.89,8.77c0.11,0.32,0.24,0.51,0.44,0.6
		c0.09,0.04,0.18,0.06,0.27,0.06c0.18,0,0.37-0.07,0.52-0.13c2.09-0.87,4.17-1.71,6.27-2.56l1.83-0.75c1.24-0.51,2.49-1.01,3.74-1.5
		c0.24-0.09,0.57-0.25,0.69-0.57c0.09-0.23,0.05-0.5-0.1-0.82c-0.13-0.28-0.24-0.58-0.34-0.87c-0.08-0.24-0.17-0.48-0.27-0.71
		c-0.54-1.24-0.64-1.31-1.91-0.83c-0.7,0.26-1.34,0.45-2.02,0.04c-0.58-0.35-0.83-0.92-1.08-1.57l-0.57-1.55
		c-0.8-2.15-1.59-4.3-2.4-6.45c-0.76-2-1.51-4-2.28-6c-0.96-2.52-1.91-5.04-2.86-7.56c-0.69-1.83-1.38-3.67-2.07-5.5
		c-0.83-2.21-1.66-4.42-2.49-6.62c-0.22-0.59-0.26-1.03-0.09-1.35c0.16-0.32,0.53-0.54,1.11-0.68c3.35-0.8,6.7-1.6,10.05-2.39
		c2.83-0.67,5.67-1.33,8.51-1.98c0.92-0.21,1.83-0.42,2.68-0.6l0.75-0.17c0.89,0.01,1.46,0.36,1.85,1.13
		c0.45,0.89,0.91,1.77,1.36,2.65c0.4,0.77,0.8,1.53,1.19,2.3c0.17,0.34,0.4,0.65,0.98,0.53c0.57-0.11,0.92-0.24,1.06-0.54
		c0.14-0.3,0-0.68-0.27-1.19c-0.11-0.2-0.14-0.35-0.1-0.45c0.04-0.1,0.17-0.18,0.38-0.25c0.09-0.03,0.17-0.05,0.26-0.07
		c0.08-0.02,0.17-0.04,0.25-0.06c1.32-0.39,2.13-0.55,2.63,0.82c0.04,0.11,0.14,0.26,0.39,0.34c0.43,0.14,1.1,0,1.5-0.3
		c0.17-0.13,0.27-0.28,0.29-0.44C62.74,16.09,62.59,15.9,62.47,15.75z M22.85,22.15c-0.4,0.09-0.68-0.04-0.82-0.42
		c-0.3-0.78-0.62-1.62-0.9-2.46c-0.03-0.1-0.03-0.19,0.01-0.26c0.05-0.1,0.15-0.17,0.27-0.21c0.72-0.21,1.46-0.39,2.17-0.57
		l0.79-0.2c0.4,0.03,0.6,0.16,0.71,0.46l0.25,0.69c0.21,0.57,0.42,1.13,0.62,1.7c0.05,0.14,0.05,0.25,0,0.34
		c-0.06,0.12-0.22,0.19-0.33,0.22C24.63,21.71,23.72,21.95,22.85,22.15z M36.75,51.47c0.16,0,0.35,0.06,0.46,0.28
		c0.6,1.1,0.98,2.3,1.35,3.45l0.11,0.36c-0.04,0.48-0.14,0.67-0.38,0.77c-1.1,0.45-2.09,0.85-3.1,1.24
		c-0.24,0.09-0.46,0.09-0.63,0.02c-0.17-0.08-0.31-0.25-0.4-0.5c-0.51-1.4-0.88-2.49-1.19-3.51c-0.13-0.41,0.03-0.73,0.43-0.88
		c1.01-0.4,2.03-0.8,3.05-1.17C36.51,51.5,36.62,51.47,36.75,51.47z M34.6,44.47c0.46,1.1,0.84,2.11,1.16,3.1
		c0.08,0.24,0.08,0.44,0,0.6c-0.08,0.18-0.26,0.31-0.54,0.4c-1.09,0.37-1.98,0.69-2.8,1.02c-0.41,0.16-0.69,0.08-0.87-0.25
		c-0.48-0.88-0.76-1.85-1.02-2.71c-0.08-0.25-0.15-0.5-0.22-0.73c-0.02-0.6,0.15-0.78,0.45-0.87l1-0.34
		c0.62-0.21,1.24-0.43,1.87-0.63C33.95,43.95,34.39,43.94,34.6,44.47z M31.42,36.93c0.17,0,0.35,0.06,0.46,0.27
		c0.57,1.03,0.92,2.18,1.2,3.11c0.03,0.61-0.13,0.72-0.33,0.78l-0.8,0.28c-0.7,0.24-1.42,0.5-2.14,0.72c-0.32,0.1-0.76,0.1-0.97-0.5
		l-0.14-0.37c-0.3-0.82-0.59-1.64-0.88-2.47c-0.05-0.15-0.1-0.38-0.01-0.56c0.06-0.14,0.2-0.24,0.39-0.3
		c0.94-0.31,1.93-0.63,2.96-0.92C31.24,36.95,31.33,36.93,31.42,36.93z M29.59,30.76c0.3,0.8,0.62,1.66,0.93,2.54
		c0.08,0.23,0.08,0.42,0.01,0.56c-0.07,0.15-0.22,0.26-0.45,0.33c-0.92,0.3-1.88,0.6-2.83,0.86c-0.4,0.1-0.71-0.06-0.86-0.47
		c-0.31-0.87-0.6-1.75-0.86-2.57c-0.09-0.26-0.09-0.47-0.01-0.62c0.08-0.16,0.26-0.27,0.54-0.34c0.3-0.08,0.61-0.17,0.91-0.27
		c0.64-0.19,1.29-0.39,1.99-0.49C29.19,30.31,29.46,30.4,29.59,30.76z M28.2,26.93c0.05,0.17,0.05,0.33-0.01,0.45
		c-0.05,0.1-0.13,0.16-0.24,0.2c-0.72,0.23-1.45,0.43-2.17,0.63c-0.31,0.09-0.61,0.17-0.92,0.26c-0.4-0.04-0.6-0.18-0.71-0.48
		l-0.35-1.03c-0.17-0.49-0.34-0.97-0.51-1.46c-0.07-0.2-0.07-0.37,0-0.5c0.06-0.12,0.19-0.21,0.38-0.26
		c0.81-0.22,1.69-0.45,2.71-0.7c0.08-0.02,0.16-0.03,0.25-0.03c0.23,0,0.46,0.09,0.6,0.41C27.64,25.39,27.95,26.18,28.2,26.93z
		 M58.05,13.36c-0.56,0.17-1.26,0.38-1.78,0.42c-0.04,0-0.07,0-0.11,0c-0.43,0-0.61-0.08-0.73-0.29c-0.41-0.76-0.78-1.45-1.11-2.11
		c-0.02-0.05-0.06-0.14-0.04-0.2c0.02-0.04,0.09-0.11,0.32-0.17c0.63-0.18,1.27-0.35,1.89-0.49c0.06-0.02,0.13-0.02,0.19-0.02
		c0.27,0,0.49,0.16,0.68,0.47c0.22,0.39,0.43,0.78,0.64,1.18c0.1,0.2,0.21,0.39,0.31,0.58c0.1,0.19,0.14,0.33,0.1,0.42
		C58.36,13.25,58.19,13.32,58.05,13.36z"/>
	<linearGradient id="SVGID_13_" gradientUnits="userSpaceOnUse" x1="0" y1="25.9843" x2="46.6344" y2="25.9843">
		<stop  offset="0" style="stop-color:#F61059"/>
		<stop  offset="0" style="stop-color:#0FB3C6"/>
		<stop  offset="1" style="stop-color:#4CE2B9"/>
	</linearGradient>
	<path class="st12" d="M25.15,44.55c-0.09-0.4-0.24-0.66-0.48-0.79c-0.25-0.15-0.56-0.12-1,0.04c-0.14,0.05-0.28,0.11-0.41,0.17
		c-0.27,0.12-0.57,0.23-0.72,0.23h-0.01c-1.01-0.02-1.57-0.31-1.91-1.02c-0.32-0.65-0.52-1.36-0.72-2.04
		c-0.07-0.24-0.14-0.48-0.21-0.72c-1.04-3.36-2.06-6.73-3.08-10.09l-1.35-4.47c-0.67-2.19-1.34-4.37-2-6.56
		c-0.91-2.99-1.83-5.98-2.73-8.97c-0.14-0.44-0.14-0.78-0.01-1.02c0.13-0.26,0.43-0.45,0.89-0.59c1.08-0.32,2.2-0.51,3.28-0.7
		c0.59-0.1,1.18-0.2,1.76-0.32c1.96-0.4,3.95-0.76,5.88-1.12c1.22-0.22,2.45-0.45,3.66-0.68c1.62-0.31,3.23-0.63,4.84-0.95
		c1.32-0.26,2.63-0.52,3.95-0.78c0.86-0.16,1.49,0.16,1.86,0.94c0.4,0.85,0.79,1.71,1.18,2.57c0.33,0.72,0.65,1.44,0.99,2.15
		c0.14,0.3,0.38,0.51,0.68,0.61c0.39,0.12,0.86,0.06,1.3-0.2c0.21-0.12,0.33-0.26,0.37-0.44c0.06-0.26-0.09-0.49-0.22-0.68
		c-0.04-0.06-0.08-0.13-0.11-0.19c-0.14-0.29-0.13-0.42-0.1-0.48c0.04-0.08,0.17-0.14,0.38-0.18c0.4-0.07,0.8-0.16,1.21-0.24
		c0.27-0.06,0.54-0.11,0.81-0.17c0.4-0.08,0.71,0.06,0.91,0.47c0.03,0.05,0.05,0.11,0.08,0.16c0.08,0.17,0.16,0.35,0.29,0.5
		c0.51,0.58,1.07,0.33,1.48,0.16c0.14-0.06,0.27-0.12,0.39-0.14c0.21-0.05,0.3-0.17,0.33-0.25c0.1-0.23-0.03-0.49-0.13-0.68L46.43,8
		c-0.6-1.23-1.21-2.46-1.81-3.69c-0.61-1.23-1.21-2.45-1.81-3.69c-0.26-0.53-0.61-0.7-1.17-0.6c-2.68,0.52-5.54,1.06-9.02,1.7
		c-2.3,0.42-4.6,0.84-6.91,1.26c-1.93,0.35-3.86,0.7-5.79,1.05c-2.15,0.39-4.3,0.79-6.45,1.19l-4.3,0.79
		C6.38,6.53,3.59,7.04,0.8,7.55C0.46,7.61,0.23,7.74,0.1,7.94c-0.12,0.2-0.14,0.45-0.05,0.78c0.21,0.77,0.41,1.54,0.62,2.3l0.2,0.77
		c1.02,3.88,2.03,7.76,3.04,11.65c0.39,1.5,0.77,3,1.16,4.5c0.39,1.54,0.79,3.07,1.19,4.61c0.61,2.35,1.23,4.7,1.85,7.05l1.29,4.9
		c0.16,0.6,0.31,1.19,0.47,1.79c0.42,1.58,0.85,3.21,1.24,4.83c0.1,0.41,0.25,0.65,0.46,0.77c0.11,0.06,0.22,0.09,0.35,0.09
		c0.19,0,0.4-0.06,0.64-0.14c1.86-0.65,3.72-1.27,5.58-1.9c0.83-0.28,1.66-0.56,2.48-0.84c0.46-0.16,0.93-0.32,1.4-0.48
		c0.96-0.33,1.94-0.67,2.92-0.98c0.4-0.13,0.65-0.31,0.76-0.56c0.11-0.25,0.1-0.55-0.04-0.92C25.48,45.66,25.27,45.11,25.15,44.55z
		 M38.73,3.43l0.34-0.06c0.65-0.12,1.31-0.25,1.96-0.35c0.03-0.01,0.06-0.01,0.1-0.01c0.19,0,0.35,0.09,0.43,0.23
		c0.4,0.74,0.75,1.49,1,2.06c0.04,0.09,0.02,0.13,0.02,0.15c-0.03,0.06-0.12,0.12-0.23,0.14C41.75,5.74,41.16,5.87,40.57,6
		l-0.53,0.12C40,6.11,39.95,6.1,39.91,6.09c-0.11-0.03-0.22-0.06-0.3-0.11c-0.25-0.16-1.15-2.01-1.13-2.32
		C38.5,3.55,38.55,3.46,38.73,3.43z M4.88,13.28c-0.42,0.06-0.71-0.14-0.83-0.64l-0.08-0.3c-0.13-0.52-0.27-1.06-0.43-1.59
		c-0.12-0.37,0.04-0.49,0.23-0.55c1.02-0.35,2.05-0.52,2.95-0.65c0.72-0.07,0.95,0.2,1.09,0.67c0.06,0.21,0.12,0.43,0.18,0.65
		c0.1,0.35,0.19,0.72,0.32,1.07c0.07,0.2,0.08,0.35,0.02,0.47c-0.05,0.11-0.17,0.18-0.35,0.22C6.96,12.89,5.92,13.1,4.88,13.28z
		 M6.46,19.28c-0.4,0-0.62-0.17-0.72-0.57c-0.08-0.3-0.16-0.59-0.24-0.89c-0.12-0.43-0.24-0.85-0.35-1.28
		c-0.05-0.2-0.04-0.36,0.03-0.48c0.07-0.12,0.21-0.21,0.42-0.26c1.13-0.27,2.04-0.47,2.87-0.64c0.1-0.02,0.18-0.03,0.26-0.03
		c0.37,0,0.59,0.21,0.71,0.65c0.11,0.42,0.24,0.83,0.36,1.24c0.08,0.26,0.16,0.51,0.23,0.77c0.06,0.2,0.05,0.39-0.02,0.52
		c-0.05,0.09-0.14,0.16-0.25,0.19c-0.78,0.22-1.59,0.39-2.37,0.57c-0.3,0.07-0.61,0.13-0.91,0.2C6.47,19.28,6.47,19.28,6.46,19.28z
		 M7.42,25.04C7.23,24.37,7,23.59,6.81,22.81c-0.14-0.53,0-0.8,0.49-0.96c1.08-0.34,2.17-0.53,3-0.65c0.08-0.01,0.15-0.02,0.22-0.02
		c0.42,0,0.66,0.23,0.77,0.72c0.15,0.68,0.35,1.32,0.58,2.03c0.07,0.22,0.08,0.42,0.01,0.55c-0.05,0.1-0.14,0.18-0.28,0.22
		c-0.84,0.26-1.68,0.47-2.49,0.68c-0.29,0.07-0.56,0.14-0.82,0.21C7.66,25.56,7.5,25.31,7.42,25.04z M9.38,31.97
		c-0.33-0.92-0.7-1.95-0.8-3.01c-0.03-0.39,0.12-0.61,0.49-0.7l1.16-0.29c0.62-0.15,1.24-0.31,1.85-0.47
		c0.51-0.12,0.81,0.04,0.97,0.52c0.33,1.01,0.59,1.86,0.79,2.66c0.1,0.38-0.23,0.57-0.52,0.67c-1.02,0.32-2.05,0.6-3.28,0.92
		C9.78,32.32,9.49,32.28,9.38,31.97z M11.23,38.95c-0.31-0.86-0.56-1.8-0.81-3.04c-0.08-0.37,0.08-0.67,0.4-0.77
		c0.82-0.28,1.67-0.52,2.48-0.76c0.32-0.09,0.64-0.19,0.96-0.28c0.38,0.01,0.62,0.19,0.73,0.55c0.32,0.97,0.62,1.91,0.88,2.88
		c0.09,0.34-0.05,0.63-0.4,0.78c-0.74,0.33-1.54,0.54-2.32,0.75c-0.41,0.11-0.81,0.21-1.21,0.34
		C11.58,39.52,11.33,39.24,11.23,38.95z M17.47,45.84l-1.06,0.36c-0.7,0.24-1.4,0.47-2.11,0.7c-0.29,0.09-0.54,0.09-0.71,0
		c-0.15-0.08-0.25-0.23-0.32-0.46l-0.04-0.12c-0.32-1.05-0.64-2.14-0.88-3.23c-0.11-0.51,0.44-0.73,0.61-0.78
		c0.78-0.25,1.57-0.48,2.36-0.71l0.77-0.23c0.1-0.03,0.24-0.06,0.37-0.06c0.24,0,0.5,0.09,0.62,0.42c0.28,0.76,0.52,1.56,0.75,2.33
		c0.1,0.31,0.19,0.62,0.29,0.94C18.08,45.45,17.89,45.71,17.47,45.84z"/>
</g>
<g>
	<linearGradient id="SVGID_14_" gradientUnits="userSpaceOnUse" x1="46.3473" y1="31.8047" x2="64.6322" y2="31.8047">
		<stop  offset="0" style="stop-color:#F61059"/>
		<stop  offset="0" style="stop-color:#0FB3C6"/>
		<stop  offset="1" style="stop-color:#4CE2B9"/>
	</linearGradient>
	<path class="st13" d="M46.35,40.59l1.12-17.57h4.5l3.43,12.2h0.19l3.43-12.2h4.5l1.12,17.57h-3.34l-0.77-12.62h-0.19l-3.51,12.62
		h-2.66l-3.53-12.62h-0.16l-0.77,12.62H46.35z"/>
	<linearGradient id="SVGID_15_" gradientUnits="userSpaceOnUse" x1="70.6375" y1="33.562" x2="83.1387" y2="33.562">
		<stop  offset="0" style="stop-color:#F61059"/>
		<stop  offset="0" style="stop-color:#0FB3C6"/>
		<stop  offset="1" style="stop-color:#4CE2B9"/>
	</linearGradient>
	<path class="st14" d="M76.89,40.9c-1.2,0-2.21-0.12-3.01-0.35c-0.81-0.23-1.45-0.63-1.92-1.18c-0.48-0.55-0.81-1.3-1.02-2.25
		c-0.2-0.95-0.3-2.13-0.3-3.56s0.1-2.61,0.3-3.56c0.2-0.95,0.54-1.7,1.02-2.25c0.47-0.55,1.11-0.95,1.92-1.18
		c0.8-0.23,1.81-0.35,3.01-0.35c1.23,0,2.24,0.12,3.04,0.35c0.8,0.24,1.44,0.63,1.9,1.18s0.8,1.3,1,2.23c0.2,0.94,0.3,2.13,0.3,3.57
		c0,1.42-0.1,2.61-0.3,3.56c-0.2,0.95-0.54,1.7-1,2.25c-0.47,0.55-1.1,0.95-1.92,1.18C79.1,40.78,78.09,40.9,76.89,40.9z
		 M74.2,38.17h4.14c0.49,0,0.83-0.05,1-0.15c0.17-0.1,0.26-0.3,0.26-0.58v-8.49h-4.14c-0.49,0-0.83,0.05-1,0.16
		c-0.17,0.1-0.26,0.29-0.26,0.58V38.17z"/>
	<linearGradient id="SVGID_16_" gradientUnits="userSpaceOnUse" x1="87.4674" y1="33.562" x2="100.2699" y2="33.562">
		<stop  offset="0" style="stop-color:#F61059"/>
		<stop  offset="0" style="stop-color:#0FB3C6"/>
		<stop  offset="1" style="stop-color:#4CE2B9"/>
	</linearGradient>
	<path class="st15" d="M87.47,26.53h3.32l2.96,11.08h0.27l2.93-11.08h3.32l-3.84,14.06h-5.13L87.47,26.53z"/>
	<linearGradient id="SVGID_17_" gradientUnits="userSpaceOnUse" x1="105.0949" y1="30.4836" x2="109.0163" y2="30.4836">
		<stop  offset="0" style="stop-color:#F61059"/>
		<stop  offset="0" style="stop-color:#0FB3C6"/>
		<stop  offset="1" style="stop-color:#4CE2B9"/>
	</linearGradient>
	<path class="st16" d="M107.07,24.37c-0.77,0-1.29-0.14-1.56-0.41c-0.27-0.27-0.41-0.79-0.41-1.56c0-0.79,0.14-1.32,0.41-1.6
		c0.27-0.28,0.79-0.42,1.56-0.42c0.75,0,1.26,0.14,1.54,0.42c0.27,0.28,0.41,0.82,0.41,1.6c0,0.77-0.13,1.29-0.4,1.56
		C108.35,24.23,107.84,24.37,107.07,24.37z M105.37,26.84l3.37-0.48v14.23h-3.37V26.84z"/>
	<linearGradient id="SVGID_18_" gradientUnits="userSpaceOnUse" x1="115.1561" y1="33.562" x2="127" y2="33.562">
		<stop  offset="0" style="stop-color:#F61059"/>
		<stop  offset="0" style="stop-color:#0FB3C6"/>
		<stop  offset="1" style="stop-color:#4CE2B9"/>
	</linearGradient>
	<path class="st17" d="M120.91,40.9c-1.08,0-1.99-0.12-2.74-0.37c-0.75-0.24-1.34-0.64-1.78-1.19c-0.44-0.55-0.75-1.3-0.95-2.25
		c-0.19-0.95-0.29-2.12-0.29-3.53c0-1.82,0.19-3.27,0.58-4.34c0.38-1.08,1.03-1.85,1.93-2.3c0.91-0.46,2.12-0.69,3.63-0.69
		c1.48,0,2.63,0.13,3.45,0.38c0.82,0.25,1.4,0.69,1.74,1.32c0.34,0.63,0.51,1.5,0.51,2.63c0,0.96-0.11,1.73-0.33,2.32
		c-0.22,0.59-0.62,1.05-1.21,1.36c-0.59,0.32-1.42,0.54-2.49,0.66c-1.08,0.12-2.49,0.18-4.25,0.18h-0.82v-2.05h3.84
		c0.86,0,1.44-0.11,1.75-0.32s0.47-0.62,0.47-1.22v-2.56h-3.04c-0.84,0-1.42,0.1-1.73,0.31c-0.31,0.21-0.47,0.61-0.47,1.21v7.53
		c0.37,0.1,0.76,0.17,1.18,0.21s0.93,0.07,1.54,0.07c0.75,0,1.49-0.06,2.22-0.17c0.73-0.11,1.58-0.29,2.55-0.53l0.44,2.48
		c-0.75,0.28-1.62,0.5-2.62,0.65C123.03,40.83,121.99,40.9,120.91,40.9z"/>
</g>
<g>
	<linearGradient id="SVGID_19_" gradientUnits="userSpaceOnUse" x1="46.1332" y1="48.1593" x2="50.0604" y2="48.1593">
		<stop  offset="0" style="stop-color:#F61059"/>
		<stop  offset="0" style="stop-color:#0FB3C6"/>
		<stop  offset="1" style="stop-color:#4CE2B9"/>
	</linearGradient>
	<path class="st18" d="M47.29,51.04h-1.16v-5.76h1.16V51.04z M49.03,48.69h-1.86v-1.03h1.86V48.69z M48.91,45.28h1.15v5.76h-1.15
		V45.28z"/>
	<linearGradient id="SVGID_20_" gradientUnits="userSpaceOnUse" x1="60.7278" y1="48.1593" x2="65.03" y2="48.1593">
		<stop  offset="0" style="stop-color:#F61059"/>
		<stop  offset="0" style="stop-color:#0FB3C6"/>
		<stop  offset="1" style="stop-color:#4CE2B9"/>
	</linearGradient>
	<path class="st19" d="M60.73,48.16c0-0.6,0.03-1.1,0.1-1.49c0.06-0.39,0.18-0.7,0.34-0.92c0.16-0.22,0.38-0.38,0.66-0.47
		c0.28-0.09,0.63-0.14,1.06-0.14c0.42,0,0.77,0.04,1.05,0.14c0.28,0.09,0.5,0.25,0.66,0.47c0.16,0.23,0.27,0.53,0.34,0.92
		c0.07,0.39,0.1,0.89,0.1,1.49c0,0.6-0.03,1.1-0.1,1.48c-0.07,0.39-0.18,0.69-0.34,0.92c-0.16,0.22-0.38,0.38-0.66,0.47
		c-0.28,0.09-0.63,0.14-1.05,0.14c-0.43,0-0.78-0.05-1.06-0.14c-0.28-0.09-0.5-0.25-0.66-0.47c-0.16-0.23-0.27-0.53-0.34-0.92
		C60.76,49.26,60.73,48.77,60.73,48.16z M61.98,50.01h1.16c0.24,0,0.41-0.04,0.51-0.13c0.09-0.09,0.14-0.24,0.14-0.45v-3.12h-1.18
		c-0.24,0-0.4,0.04-0.49,0.13c-0.09,0.09-0.14,0.24-0.14,0.45V50.01z"/>
	<linearGradient id="SVGID_21_" gradientUnits="userSpaceOnUse" x1="75.5724" y1="48.1593" x2="80.9658" y2="48.1593">
		<stop  offset="0" style="stop-color:#F61059"/>
		<stop  offset="0" style="stop-color:#0FB3C6"/>
		<stop  offset="1" style="stop-color:#4CE2B9"/>
	</linearGradient>
	<path class="st20" d="M75.57,51.04l0.31-5.76h1.51l0.85,3.64h0.05l0.85-3.64h1.5l0.31,5.76h-1.15l-0.19-3.69h-0.05l-0.85,3.69
		h-0.91l-0.85-3.69h-0.05l-0.2,3.69H75.57z"/>
	<linearGradient id="SVGID_22_" gradientUnits="userSpaceOnUse" x1="91.6901" y1="48.1593" x2="94.8537" y2="48.1593">
		<stop  offset="0" style="stop-color:#F61059"/>
		<stop  offset="0" style="stop-color:#0FB3C6"/>
		<stop  offset="1" style="stop-color:#4CE2B9"/>
	</linearGradient>
	<path class="st21" d="M92.85,48.67v1.23h1.99v1.13h-3.16v-5.76h3.16l-0.15,1.13h-1.85v1.24h1.71v1.02H92.85z"/>
</g>
</svg>
