<?xml version="1.0" encoding="utf-8"?>
<!-- Generator: Adobe Illustrator 24.3.0, SVG Export Plug-In . SVG Version: 6.00 Build 0)  -->
<svg version="1.1" id="Layer_1" xmlns="http://www.w3.org/2000/svg" xmlns:xlink="http://www.w3.org/1999/xlink" x="0px" y="0px"
	 viewBox="0 0 81 31" style="enable-background:new 0 0 81 31;" xml:space="preserve">
<style type="text/css">
	.st0{fill:url(#SVGID_1_);}
	.st1{fill:url(#SVGID_2_);}
	.st2{fill:url(#SVGID_3_);}
	.st3{fill:url(#SVGID_4_);}
	.st4{fill:url(#SVGID_5_);}
	.st5{fill:url(#SVGID_6_);}
	.st6{fill:url(#SVGID_7_);}
	.st7{fill:url(#SVGID_8_);}
	.st8{fill:url(#SVGID_9_);}
	.st9{fill:url(#SVGID_10_);}
	.st10{fill:url(#SVGID_11_);}
	.st11{fill:url(#SVGID_12_);}
	.st12{fill:url(#SVGID_13_);}
	.st13{fill:url(#SVGID_14_);}
	.st14{fill:url(#SVGID_15_);}
	.st15{fill:url(#SVGID_16_);}
	.st16{fill:url(#SVGID_17_);}
	.st17{fill:url(#SVGID_18_);}
	.st18{fill:url(#SVGID_19_);}
	.st19{fill:url(#SVGID_20_);}
</style>
<g>
	<linearGradient id="SVGID_1_" gradientUnits="userSpaceOnUse" x1="-1.0907" y1="180.1963" x2="22.2174" y2="180.1963">
		<stop  offset="0" style="stop-color:#F61059"/>
		<stop  offset="0.4665" style="stop-color:#F3103D"/>
		<stop  offset="1" style="stop-color:#F6103A"/>
	</linearGradient>
	<path class="st0" d="M22.09,170.41c-0.02-0.03-0.04-0.05-0.06-0.08c-0.31-0.56-0.62-1.11-0.94-1.67c-0.39-0.7-0.78-1.39-1.17-2.09
		c-0.17-0.31-0.38-0.41-0.71-0.33c-1.49,0.34-3.01,0.67-4.31,0.96c-1.3,0.28-2.61,0.57-3.91,0.85c-1.12,0.24-2.23,0.48-3.35,0.73
		c-0.79,0.17-1.59,0.35-2.39,0.53c-0.71,0.16-1.41,0.31-2.12,0.47L2.6,169.9c-1.07,0.23-2.18,0.48-3.27,0.7
		c-0.19,0.04-0.31,0.11-0.37,0.22c-0.08,0.14-0.03,0.32,0.01,0.44c0.1,0.27,0.19,0.55,0.28,0.83c0.05,0.14,0.1,0.29,0.15,0.43
		l0.68,1.98c0.56,1.65,1.13,3.29,1.69,4.94c0.25,0.72,0.49,1.44,0.74,2.17c0.25,0.72,0.49,1.45,0.74,2.17
		c0.32,0.94,0.65,1.88,0.97,2.83c0.32,0.94,0.65,1.89,0.97,2.83c0.54,1.59,1.03,3.03,1.49,4.41c0.05,0.16,0.13,0.26,0.23,0.3
		c0.05,0.02,0.09,0.03,0.14,0.03c0.09,0,0.19-0.03,0.27-0.07c1.07-0.44,2.15-0.86,3.23-1.29l0.95-0.37
		c0.64-0.26,1.28-0.51,1.93-0.76c0.12-0.05,0.29-0.13,0.36-0.29c0.05-0.12,0.03-0.25-0.05-0.41c-0.07-0.14-0.12-0.29-0.17-0.44
		c-0.04-0.12-0.09-0.24-0.14-0.36c-0.28-0.62-0.33-0.66-0.99-0.42c-0.36,0.13-0.69,0.23-1.04,0.02c-0.3-0.18-0.43-0.46-0.56-0.79
		l-0.3-0.78c-0.41-1.08-0.82-2.16-1.24-3.24c-0.39-1.01-0.78-2.01-1.17-3.02c-0.49-1.27-0.98-2.53-1.47-3.8
		c-0.36-0.92-0.71-1.84-1.07-2.77c-0.43-1.11-0.86-2.22-1.28-3.33c-0.12-0.3-0.13-0.52-0.05-0.68c0.08-0.16,0.27-0.27,0.57-0.34
		c1.73-0.4,3.45-0.8,5.18-1.2c1.46-0.34,2.92-0.67,4.39-1c0.47-0.11,0.95-0.21,1.38-0.3l0.39-0.09c0.46,0,0.75,0.18,0.96,0.57
		c0.23,0.45,0.47,0.89,0.7,1.33c0.2,0.39,0.41,0.77,0.61,1.16c0.09,0.17,0.21,0.33,0.5,0.27c0.29-0.06,0.47-0.12,0.55-0.27
		c0.07-0.15,0-0.34-0.14-0.6c-0.05-0.1-0.07-0.18-0.05-0.23c0.02-0.05,0.09-0.09,0.2-0.13c0.05-0.01,0.09-0.02,0.14-0.03
		c0.04-0.01,0.09-0.02,0.13-0.03c0.68-0.2,1.1-0.28,1.36,0.41c0.02,0.06,0.07,0.13,0.2,0.17c0.22,0.07,0.57,0,0.77-0.15
		c0.09-0.07,0.14-0.14,0.15-0.22C22.23,170.59,22.15,170.49,22.09,170.41z M1.67,173.63c-0.21,0.05-0.35-0.02-0.42-0.21
		c-0.15-0.39-0.32-0.82-0.46-1.23c-0.02-0.05-0.01-0.09,0.01-0.13c0.03-0.05,0.08-0.09,0.14-0.11c0.37-0.11,0.75-0.2,1.12-0.29
		l0.41-0.1c0.2,0.01,0.31,0.08,0.37,0.23l0.13,0.35c0.11,0.28,0.22,0.57,0.32,0.85c0.02,0.07,0.03,0.13,0,0.17
		c-0.03,0.06-0.11,0.09-0.17,0.11C2.58,173.41,2.12,173.53,1.67,173.63z M8.83,188.37c0.08,0,0.18,0.03,0.24,0.14
		c0.31,0.55,0.51,1.16,0.7,1.74l0.06,0.18c-0.02,0.24-0.07,0.34-0.2,0.39c-0.56,0.23-1.07,0.43-1.6,0.62
		c-0.12,0.05-0.24,0.05-0.33,0.01c-0.09-0.04-0.16-0.13-0.21-0.25c-0.26-0.71-0.46-1.25-0.62-1.76c-0.07-0.2,0.02-0.37,0.22-0.44
		c0.52-0.2,1.05-0.4,1.57-0.59C8.71,188.38,8.77,188.37,8.83,188.37z M7.72,184.85c0.24,0.55,0.43,1.06,0.6,1.56
		c0.04,0.12,0.04,0.22,0,0.3c-0.04,0.09-0.14,0.16-0.28,0.2c-0.56,0.19-1.02,0.35-1.44,0.51c-0.21,0.08-0.36,0.04-0.45-0.13
		c-0.25-0.44-0.39-0.93-0.52-1.36c-0.04-0.13-0.08-0.25-0.11-0.36c-0.01-0.3,0.08-0.39,0.23-0.44l0.52-0.17
		c0.32-0.11,0.64-0.21,0.96-0.32C7.39,184.59,7.61,184.59,7.72,184.85z M6.09,181.06c0.09,0,0.18,0.03,0.24,0.13
		c0.3,0.52,0.47,1.1,0.62,1.56c0.02,0.31-0.07,0.36-0.17,0.39l-0.41,0.14c-0.36,0.12-0.73,0.25-1.1,0.36
		c-0.17,0.05-0.39,0.05-0.5-0.25l-0.07-0.19c-0.15-0.41-0.31-0.83-0.45-1.24c-0.03-0.08-0.05-0.19,0-0.28
		c0.03-0.07,0.1-0.12,0.2-0.15c0.48-0.16,0.99-0.31,1.52-0.46C5.99,181.07,6.04,181.06,6.09,181.06z M5.14,177.96
		c0.16,0.4,0.32,0.84,0.48,1.28c0.04,0.11,0.04,0.21,0.01,0.28c-0.04,0.07-0.12,0.13-0.23,0.17c-0.48,0.15-0.97,0.3-1.46,0.43
		c-0.21,0.05-0.36-0.03-0.44-0.24c-0.16-0.44-0.31-0.88-0.44-1.29c-0.05-0.13-0.05-0.24,0-0.31c0.04-0.08,0.14-0.14,0.28-0.17
		c0.16-0.04,0.31-0.09,0.47-0.13c0.33-0.1,0.66-0.2,1.03-0.25C4.93,177.73,5.07,177.78,5.14,177.96z M4.43,176.04
		c0.03,0.08,0.03,0.17,0,0.23c-0.02,0.05-0.07,0.08-0.13,0.1c-0.37,0.11-0.75,0.22-1.12,0.32c-0.16,0.04-0.32,0.09-0.47,0.13
		c-0.21-0.02-0.31-0.09-0.36-0.24l-0.18-0.52c-0.09-0.24-0.17-0.49-0.26-0.73c-0.04-0.1-0.04-0.19,0-0.25
		c0.03-0.06,0.1-0.1,0.2-0.13c0.42-0.11,0.87-0.23,1.39-0.35c0.04-0.01,0.08-0.02,0.13-0.02c0.12,0,0.24,0.05,0.31,0.21
		C4.14,175.26,4.3,175.66,4.43,176.04z M19.81,169.22c-0.29,0.08-0.65,0.19-0.92,0.21c-0.02,0-0.04,0-0.05,0
		c-0.22,0-0.32-0.04-0.37-0.14c-0.21-0.38-0.4-0.73-0.57-1.06c-0.01-0.03-0.03-0.07-0.02-0.1c0.01-0.02,0.05-0.05,0.16-0.09
		c0.33-0.09,0.66-0.17,0.97-0.25c0.03-0.01,0.07-0.01,0.1-0.01c0.14,0,0.26,0.08,0.35,0.24c0.11,0.19,0.22,0.39,0.33,0.59
		c0.05,0.1,0.11,0.2,0.16,0.29c0.05,0.1,0.07,0.17,0.05,0.21C19.97,169.16,19.88,169.19,19.81,169.22z"/>
	<linearGradient id="SVGID_2_" gradientUnits="userSpaceOnUse" x1="-10.1126" y1="175.5611" x2="13.9273" y2="175.5611">
		<stop  offset="0" style="stop-color:#F61059"/>
		<stop  offset="0.4665" style="stop-color:#F3103D"/>
		<stop  offset="1" style="stop-color:#F6103A"/>
	</linearGradient>
	<path class="st1" d="M2.85,184.89c-0.05-0.2-0.13-0.33-0.25-0.4c-0.13-0.07-0.29-0.06-0.52,0.02c-0.07,0.03-0.15,0.05-0.21,0.08
		c-0.14,0.06-0.3,0.12-0.37,0.11H1.5c-0.52-0.01-0.81-0.16-0.98-0.51c-0.16-0.33-0.27-0.68-0.37-1.03
		c-0.04-0.12-0.07-0.24-0.11-0.36c-0.54-1.69-1.06-3.38-1.59-5.07l-0.7-2.25c-0.34-1.1-0.69-2.2-1.03-3.3
		c-0.47-1.5-0.94-3-1.41-4.51c-0.07-0.22-0.07-0.39,0-0.51c0.07-0.13,0.22-0.23,0.46-0.3c0.56-0.16,1.13-0.26,1.69-0.35
		c0.3-0.05,0.61-0.1,0.91-0.16c1.01-0.2,2.04-0.38,3.03-0.56c0.63-0.11,1.26-0.22,1.89-0.34c0.83-0.15,1.67-0.32,2.5-0.48
		c0.68-0.13,1.36-0.26,2.04-0.39c0.44-0.08,0.77,0.08,0.96,0.47c0.21,0.43,0.41,0.86,0.61,1.29c0.17,0.36,0.34,0.72,0.51,1.08
		c0.07,0.15,0.19,0.26,0.35,0.31c0.2,0.06,0.44,0.03,0.67-0.1c0.11-0.06,0.17-0.13,0.19-0.22c0.03-0.13-0.05-0.25-0.11-0.34
		c-0.02-0.03-0.04-0.06-0.06-0.1c-0.07-0.15-0.07-0.21-0.05-0.24c0.02-0.04,0.09-0.07,0.2-0.09c0.21-0.04,0.41-0.08,0.62-0.12
		c0.14-0.03,0.28-0.06,0.42-0.08c0.2-0.04,0.37,0.03,0.47,0.24c0.01,0.03,0.03,0.05,0.04,0.08c0.04,0.09,0.08,0.17,0.15,0.25
		c0.26,0.29,0.55,0.17,0.76,0.08c0.07-0.03,0.14-0.06,0.2-0.07c0.11-0.03,0.15-0.08,0.17-0.13c0.05-0.12-0.02-0.25-0.07-0.34
		l-0.02-0.03c-0.31-0.62-0.62-1.24-0.93-1.85s-0.62-1.23-0.93-1.85c-0.14-0.27-0.31-0.35-0.6-0.3c-1.38,0.26-2.86,0.53-4.65,0.85
		c-1.19,0.21-2.37,0.42-3.56,0.63c-0.99,0.18-1.99,0.35-2.99,0.53c-1.11,0.2-2.22,0.4-3.33,0.6l-2.22,0.4
		c-1.44,0.26-2.87,0.51-4.31,0.77c-0.18,0.03-0.3,0.1-0.36,0.2c-0.06,0.1-0.07,0.23-0.02,0.39c0.11,0.39,0.21,0.77,0.32,1.16
		l0.1,0.39c0.52,1.95,1.05,3.9,1.57,5.86c0.2,0.75,0.4,1.51,0.6,2.26c0.2,0.77,0.41,1.54,0.61,2.32c0.32,1.18,0.63,2.36,0.95,3.55
		l0.66,2.46c0.08,0.3,0.16,0.6,0.24,0.9c0.22,0.79,0.44,1.61,0.64,2.43c0.05,0.2,0.13,0.33,0.24,0.39c0.06,0.03,0.12,0.05,0.18,0.05
		c0.1,0,0.2-0.03,0.33-0.07c0.96-0.33,1.92-0.64,2.88-0.96c0.43-0.14,0.85-0.28,1.28-0.42c0.24-0.08,0.48-0.16,0.72-0.24
		c0.49-0.16,1-0.34,1.51-0.49c0.2-0.06,0.33-0.16,0.39-0.28c0.06-0.12,0.05-0.27-0.02-0.46C3.02,185.45,2.91,185.17,2.85,184.89z
		 M9.85,164.22l0.17-0.03c0.34-0.06,0.67-0.12,1.01-0.18c0.02,0,0.03,0,0.05,0c0.1,0,0.18,0.04,0.22,0.12
		c0.21,0.37,0.39,0.75,0.52,1.03c0.02,0.05,0.01,0.07,0.01,0.07c-0.02,0.03-0.06,0.06-0.12,0.07c-0.3,0.07-0.61,0.14-0.91,0.21
		l-0.27,0.06c-0.02-0.01-0.05-0.01-0.07-0.02c-0.06-0.02-0.11-0.03-0.15-0.05c-0.13-0.08-0.59-1.01-0.58-1.17
		C9.73,164.28,9.76,164.24,9.85,164.22z M-7.6,169.17c-0.22,0.03-0.36-0.07-0.43-0.32l-0.04-0.15c-0.07-0.26-0.14-0.53-0.22-0.8
		c-0.06-0.19,0.02-0.25,0.12-0.28c0.52-0.18,1.06-0.26,1.52-0.33c0.37-0.03,0.49,0.1,0.56,0.34c0.03,0.11,0.06,0.22,0.09,0.33
		c0.05,0.18,0.1,0.36,0.16,0.54c0.04,0.1,0.04,0.18,0.01,0.23c-0.03,0.05-0.09,0.09-0.18,0.11C-6.52,168.98-7.06,169.09-7.6,169.17z
		 M-6.78,172.19c-0.21,0-0.32-0.09-0.37-0.29c-0.04-0.15-0.08-0.3-0.12-0.45c-0.06-0.21-0.12-0.43-0.18-0.64
		c-0.03-0.1-0.02-0.18,0.01-0.24c0.04-0.06,0.11-0.1,0.22-0.13c0.58-0.14,1.05-0.24,1.48-0.32c0.05-0.01,0.09-0.01,0.13-0.01
		c0.19,0,0.31,0.1,0.36,0.32c0.05,0.21,0.12,0.42,0.19,0.62c0.04,0.13,0.08,0.26,0.12,0.39c0.03,0.1,0.03,0.19-0.01,0.26
		c-0.03,0.05-0.07,0.08-0.13,0.1c-0.4,0.11-0.82,0.2-1.22,0.29c-0.16,0.03-0.31,0.07-0.47,0.1C-6.78,172.19-6.78,172.19-6.78,172.19
		z M-6.29,175.09c-0.1-0.34-0.22-0.73-0.32-1.12c-0.07-0.26,0-0.4,0.25-0.48c0.56-0.17,1.12-0.26,1.55-0.33
		c0.04-0.01,0.08-0.01,0.11-0.01c0.22,0,0.34,0.11,0.4,0.36c0.08,0.34,0.18,0.66,0.3,1.02c0.04,0.11,0.04,0.21,0,0.28
		c-0.03,0.05-0.07,0.09-0.15,0.11c-0.43,0.13-0.87,0.24-1.28,0.34c-0.15,0.04-0.29,0.07-0.42,0.11
		C-6.17,175.35-6.25,175.22-6.29,175.09z M-5.28,178.57c-0.17-0.46-0.36-0.98-0.41-1.51c-0.02-0.2,0.06-0.31,0.25-0.35l0.6-0.15
		c0.32-0.08,0.64-0.15,0.96-0.23c0.26-0.06,0.42,0.02,0.5,0.26c0.17,0.51,0.3,0.93,0.41,1.34c0.05,0.19-0.12,0.29-0.27,0.33
		c-0.53,0.16-1.06,0.3-1.69,0.46C-5.07,178.75-5.22,178.72-5.28,178.57z M-4.32,182.08c-0.16-0.43-0.29-0.9-0.42-1.53
		c-0.04-0.19,0.04-0.33,0.21-0.39c0.42-0.14,0.86-0.26,1.28-0.38c0.16-0.05,0.33-0.09,0.49-0.14c0.19,0.01,0.32,0.1,0.38,0.28
		c0.16,0.49,0.32,0.96,0.46,1.45c0.05,0.17-0.03,0.31-0.2,0.39c-0.38,0.17-0.8,0.27-1.19,0.38c-0.21,0.05-0.42,0.11-0.62,0.17
		C-4.14,182.36-4.27,182.22-4.32,182.08z M-1.11,185.54l-0.55,0.18c-0.36,0.12-0.72,0.24-1.09,0.35c-0.15,0.05-0.28,0.05-0.37,0
		c-0.08-0.04-0.13-0.12-0.17-0.23l-0.02-0.06c-0.16-0.53-0.33-1.08-0.45-1.62c-0.06-0.26,0.23-0.37,0.32-0.39
		c0.4-0.12,0.81-0.24,1.21-0.36l0.4-0.11c0.05-0.01,0.12-0.03,0.19-0.03c0.13,0,0.26,0.05,0.32,0.21c0.15,0.38,0.27,0.78,0.39,1.17
		c0.05,0.16,0.1,0.31,0.15,0.47C-0.79,185.34-0.89,185.47-1.11,185.54z"/>
</g>
<g>
	<linearGradient id="SVGID_3_" gradientUnits="userSpaceOnUse" x1="13.7793" y1="178.4868" x2="23.2051" y2="178.4868">
		<stop  offset="0" style="stop-color:#F61059"/>
		<stop  offset="0.4665" style="stop-color:#F3103D"/>
		<stop  offset="1" style="stop-color:#F6103A"/>
	</linearGradient>
	<path class="st2" d="M13.78,182.9l0.58-8.83h2.32l1.77,6.13h0.1l1.77-6.13h2.32l0.58,8.83h-1.72l-0.4-6.35h-0.1l-1.81,6.35h-1.37
		l-1.82-6.35H15.9l-0.4,6.35H13.78z"/>
	<linearGradient id="SVGID_4_" gradientUnits="userSpaceOnUse" x1="26.3008" y1="179.3701" x2="32.7451" y2="179.3701">
		<stop  offset="0" style="stop-color:#F61059"/>
		<stop  offset="0.4665" style="stop-color:#F3103D"/>
		<stop  offset="1" style="stop-color:#F6103A"/>
	</linearGradient>
	<path class="st3" d="M29.52,183.06c-0.62,0-1.14-0.06-1.55-0.18c-0.42-0.12-0.75-0.32-0.99-0.59c-0.25-0.28-0.42-0.66-0.52-1.13
		s-0.16-1.07-0.16-1.79s0.05-1.31,0.16-1.79s0.28-0.85,0.52-1.13c0.24-0.28,0.57-0.48,0.99-0.59c0.41-0.12,0.93-0.18,1.55-0.18
		c0.63,0,1.15,0.06,1.57,0.18c0.41,0.12,0.74,0.32,0.98,0.59s0.41,0.65,0.52,1.12c0.1,0.47,0.16,1.07,0.16,1.79
		c0,0.72-0.05,1.31-0.16,1.79c-0.1,0.48-0.28,0.85-0.52,1.13c-0.24,0.28-0.57,0.48-0.99,0.59C30.67,183,30.14,183.06,29.52,183.06z
		 M28.14,181.69h2.13c0.25,0,0.43-0.03,0.52-0.08c0.09-0.05,0.13-0.15,0.13-0.29v-4.27h-2.13c-0.25,0-0.43,0.03-0.52,0.08
		c-0.09,0.05-0.13,0.15-0.13,0.29V181.69z"/>
	<linearGradient id="SVGID_5_" gradientUnits="userSpaceOnUse" x1="34.9766" y1="179.3701" x2="41.5762" y2="179.3701">
		<stop  offset="0" style="stop-color:#F61059"/>
		<stop  offset="0.4665" style="stop-color:#F3103D"/>
		<stop  offset="1" style="stop-color:#F6103A"/>
	</linearGradient>
	<path class="st4" d="M34.98,175.84h1.71l1.53,5.57h0.14l1.51-5.57h1.71l-1.98,7.07h-2.64L34.98,175.84z"/>
	<linearGradient id="SVGID_6_" gradientUnits="userSpaceOnUse" x1="44.0635" y1="177.8228" x2="46.085" y2="177.8228">
		<stop  offset="0" style="stop-color:#F61059"/>
		<stop  offset="0.4665" style="stop-color:#F3103D"/>
		<stop  offset="1" style="stop-color:#F6103A"/>
	</linearGradient>
	<path class="st5" d="M45.08,174.75c-0.4,0-0.66-0.07-0.8-0.21c-0.14-0.14-0.21-0.4-0.21-0.78c0-0.4,0.07-0.66,0.21-0.81
		c0.14-0.14,0.41-0.21,0.8-0.21c0.39,0,0.65,0.07,0.79,0.21c0.14,0.14,0.21,0.41,0.21,0.81c0,0.39-0.07,0.65-0.21,0.78
		C45.74,174.68,45.48,174.75,45.08,174.75z M44.21,175.99l1.74-0.24v7.15h-1.74V175.99z"/>
	<linearGradient id="SVGID_7_" gradientUnits="userSpaceOnUse" x1="49.25" y1="179.3701" x2="55.3555" y2="179.3701">
		<stop  offset="0" style="stop-color:#F61059"/>
		<stop  offset="0.4665" style="stop-color:#F3103D"/>
		<stop  offset="1" style="stop-color:#F6103A"/>
	</linearGradient>
	<path class="st6" d="M52.22,183.06c-0.56,0-1.03-0.06-1.41-0.18c-0.39-0.12-0.69-0.32-0.92-0.6c-0.23-0.28-0.39-0.65-0.49-1.13
		c-0.1-0.48-0.15-1.07-0.15-1.77c0-0.91,0.1-1.64,0.3-2.18c0.2-0.54,0.53-0.93,1-1.16c0.47-0.23,1.09-0.35,1.87-0.35
		c0.76,0,1.36,0.06,1.78,0.19c0.42,0.13,0.72,0.35,0.9,0.66c0.17,0.32,0.26,0.76,0.26,1.32c0,0.48-0.06,0.87-0.17,1.17
		s-0.32,0.53-0.62,0.69s-0.73,0.27-1.29,0.33c-0.56,0.06-1.29,0.09-2.19,0.09h-0.42v-1.03h1.98c0.44,0,0.74-0.05,0.9-0.16
		s0.24-0.31,0.24-0.62v-1.29h-1.57c-0.43,0-0.73,0.05-0.89,0.16s-0.24,0.31-0.24,0.61v3.79c0.19,0.05,0.39,0.08,0.61,0.11
		s0.48,0.04,0.79,0.04c0.39,0,0.77-0.03,1.14-0.08s0.81-0.15,1.31-0.27l0.23,1.24c-0.39,0.14-0.84,0.25-1.35,0.32
		C53.31,183.02,52.77,183.06,52.22,183.06z"/>
</g>
<g>
	<linearGradient id="SVGID_8_" gradientUnits="userSpaceOnUse" x1="13.6689" y1="186.7075" x2="15.6934" y2="186.7075">
		<stop  offset="0" style="stop-color:#F61059"/>
		<stop  offset="0.4665" style="stop-color:#F3103D"/>
		<stop  offset="1" style="stop-color:#F6103A"/>
	</linearGradient>
	<path class="st7" d="M14.27,188.16h-0.6v-2.9h0.6V188.16z M15.16,186.97H14.2v-0.52h0.96V186.97z M15.1,185.26h0.59v2.9H15.1
		V185.26z"/>
	<linearGradient id="SVGID_9_" gradientUnits="userSpaceOnUse" x1="21.1924" y1="186.7075" x2="23.4102" y2="186.7075">
		<stop  offset="0" style="stop-color:#F61059"/>
		<stop  offset="0.4665" style="stop-color:#F3103D"/>
		<stop  offset="1" style="stop-color:#F6103A"/>
	</linearGradient>
	<path class="st8" d="M21.19,186.71c0-0.3,0.02-0.55,0.05-0.75c0.03-0.2,0.09-0.35,0.17-0.46c0.08-0.11,0.2-0.19,0.34-0.24
		c0.14-0.05,0.33-0.07,0.54-0.07c0.22,0,0.4,0.02,0.54,0.07c0.14,0.05,0.26,0.13,0.34,0.24c0.08,0.11,0.14,0.27,0.17,0.46
		c0.03,0.2,0.05,0.45,0.05,0.75s-0.02,0.55-0.05,0.75c-0.04,0.19-0.09,0.35-0.17,0.46c-0.08,0.11-0.2,0.19-0.34,0.24
		s-0.33,0.07-0.54,0.07c-0.22,0-0.4-0.02-0.54-0.07c-0.14-0.05-0.26-0.13-0.34-0.24c-0.08-0.11-0.14-0.27-0.17-0.46
		C21.21,187.26,21.19,187.01,21.19,186.71z M21.84,187.64h0.6c0.12,0,0.21-0.02,0.26-0.07c0.05-0.04,0.07-0.12,0.07-0.23v-1.57
		h-0.61c-0.12,0-0.21,0.02-0.25,0.07c-0.05,0.04-0.07,0.12-0.07,0.23V187.64z"/>
	<linearGradient id="SVGID_10_" gradientUnits="userSpaceOnUse" x1="28.8447" y1="186.7075" x2="31.625" y2="186.7075">
		<stop  offset="0" style="stop-color:#F61059"/>
		<stop  offset="0.4665" style="stop-color:#F3103D"/>
		<stop  offset="1" style="stop-color:#F6103A"/>
	</linearGradient>
	<path class="st9" d="M28.84,188.16l0.16-2.9h0.78l0.44,1.83h0.03l0.44-1.83h0.78l0.16,2.9h-0.59l-0.1-1.85h-0.02l-0.44,1.85H30
		l-0.44-1.85h-0.02l-0.1,1.85H28.84z"/>
	<linearGradient id="SVGID_11_" gradientUnits="userSpaceOnUse" x1="37.1533" y1="186.7075" x2="38.7842" y2="186.7075">
		<stop  offset="0" style="stop-color:#F61059"/>
		<stop  offset="0.4665" style="stop-color:#F3103D"/>
		<stop  offset="1" style="stop-color:#F6103A"/>
	</linearGradient>
	<path class="st10" d="M37.75,186.96v0.62h1.03v0.57h-1.63v-2.9h1.63l-0.08,0.57h-0.96v0.62h0.88v0.51H37.75z"/>
</g>
<g>
	<linearGradient id="SVGID_12_" gradientUnits="userSpaceOnUse" x1="0.3473" y1="11.8047" x2="18.6322" y2="11.8047">
		<stop  offset="0" style="stop-color:#F61059"/>
		<stop  offset="0" style="stop-color:#0FB3C6"/>
		<stop  offset="1" style="stop-color:#4CE2B9"/>
	</linearGradient>
	<path class="st11" d="M0.35,20.59L1.47,3.02h4.5l3.43,12.2h0.19l3.43-12.2h4.5l1.12,17.57h-3.34L14.52,7.97h-0.19l-3.51,12.62H8.16
		L4.62,7.97H4.46L3.69,20.59H0.35z"/>
	<linearGradient id="SVGID_13_" gradientUnits="userSpaceOnUse" x1="24.6375" y1="13.562" x2="37.1387" y2="13.562">
		<stop  offset="0" style="stop-color:#F61059"/>
		<stop  offset="0" style="stop-color:#0FB3C6"/>
		<stop  offset="1" style="stop-color:#4CE2B9"/>
	</linearGradient>
	<path class="st12" d="M30.89,20.9c-1.2,0-2.21-0.12-3.01-0.35c-0.81-0.23-1.45-0.63-1.92-1.18c-0.48-0.55-0.81-1.3-1.02-2.25
		s-0.3-2.13-0.3-3.56s0.1-2.61,0.3-3.56s0.54-1.7,1.02-2.25c0.47-0.55,1.11-0.95,1.92-1.18c0.8-0.23,1.81-0.35,3.01-0.35
		c1.23,0,2.24,0.12,3.04,0.35c0.8,0.24,1.44,0.63,1.9,1.18s0.8,1.3,1,2.23c0.2,0.94,0.3,2.13,0.3,3.57c0,1.42-0.1,2.61-0.3,3.56
		c-0.2,0.95-0.54,1.7-1,2.25c-0.47,0.55-1.1,0.95-1.92,1.18C33.1,20.78,32.09,20.9,30.89,20.9z M28.2,18.17h4.14
		c0.49,0,0.83-0.05,1-0.15c0.17-0.1,0.26-0.3,0.26-0.58V8.95h-4.14c-0.49,0-0.83,0.05-1,0.16c-0.17,0.1-0.26,0.29-0.26,0.58V18.17z"
		/>
	<linearGradient id="SVGID_14_" gradientUnits="userSpaceOnUse" x1="41.4674" y1="13.562" x2="54.2698" y2="13.562">
		<stop  offset="0" style="stop-color:#F61059"/>
		<stop  offset="0" style="stop-color:#0FB3C6"/>
		<stop  offset="1" style="stop-color:#4CE2B9"/>
	</linearGradient>
	<path class="st13" d="M41.47,6.53h3.32l2.96,11.08h0.27l2.93-11.08h3.32l-3.84,14.06h-5.13L41.47,6.53z"/>
	<linearGradient id="SVGID_15_" gradientUnits="userSpaceOnUse" x1="59.0949" y1="10.4836" x2="63.0163" y2="10.4836">
		<stop  offset="0" style="stop-color:#F61059"/>
		<stop  offset="0" style="stop-color:#0FB3C6"/>
		<stop  offset="1" style="stop-color:#4CE2B9"/>
	</linearGradient>
	<path class="st14" d="M61.07,4.37c-0.77,0-1.29-0.14-1.56-0.41c-0.27-0.27-0.41-0.79-0.41-1.56c0-0.79,0.14-1.32,0.41-1.6
		c0.27-0.28,0.79-0.42,1.56-0.42c0.75,0,1.26,0.14,1.54,0.42c0.27,0.28,0.41,0.82,0.41,1.6c0,0.77-0.13,1.29-0.4,1.56
		C62.35,4.23,61.84,4.37,61.07,4.37z M59.37,6.84l3.37-0.48v14.23h-3.37V6.84z"/>
	<linearGradient id="SVGID_16_" gradientUnits="userSpaceOnUse" x1="69.1561" y1="13.562" x2="81" y2="13.562">
		<stop  offset="0" style="stop-color:#F61059"/>
		<stop  offset="0" style="stop-color:#0FB3C6"/>
		<stop  offset="1" style="stop-color:#4CE2B9"/>
	</linearGradient>
	<path class="st15" d="M74.91,20.9c-1.08,0-1.99-0.12-2.74-0.37c-0.75-0.24-1.34-0.64-1.78-1.19c-0.44-0.55-0.75-1.3-0.95-2.25
		c-0.19-0.95-0.29-2.12-0.29-3.53c0-1.82,0.19-3.27,0.58-4.34c0.38-1.08,1.03-1.85,1.93-2.3c0.91-0.46,2.12-0.69,3.63-0.69
		c1.48,0,2.63,0.13,3.45,0.38c0.82,0.25,1.4,0.69,1.74,1.32C80.83,8.55,81,9.43,81,10.55c0,0.96-0.11,1.73-0.33,2.32
		c-0.22,0.59-0.62,1.05-1.21,1.36s-1.42,0.54-2.49,0.66c-1.08,0.12-2.49,0.18-4.25,0.18H71.9v-2.05h3.84c0.86,0,1.44-0.11,1.75-0.32
		s0.47-0.62,0.47-1.22V8.92h-3.04c-0.84,0-1.42,0.1-1.73,0.31c-0.31,0.21-0.47,0.61-0.47,1.21v7.53c0.37,0.1,0.76,0.17,1.18,0.21
		s0.93,0.07,1.54,0.07c0.75,0,1.49-0.06,2.22-0.17c0.73-0.11,1.58-0.29,2.55-0.53l0.44,2.48c-0.75,0.28-1.62,0.5-2.62,0.65
		C77.03,20.83,75.99,20.9,74.91,20.9z"/>
</g>
<g>
	<linearGradient id="SVGID_17_" gradientUnits="userSpaceOnUse" x1="0.1332" y1="28.1593" x2="4.0604" y2="28.1593">
		<stop  offset="0" style="stop-color:#F61059"/>
		<stop  offset="0" style="stop-color:#0FB3C6"/>
		<stop  offset="1" style="stop-color:#4CE2B9"/>
	</linearGradient>
	<path class="st16" d="M1.29,31.04H0.13v-5.76h1.16V31.04z M3.03,28.69H1.17v-1.03h1.86V28.69z M2.91,25.28h1.15v5.76H2.91V25.28z"
		/>
	<linearGradient id="SVGID_18_" gradientUnits="userSpaceOnUse" x1="14.7278" y1="28.1593" x2="19.03" y2="28.1593">
		<stop  offset="0" style="stop-color:#F61059"/>
		<stop  offset="0" style="stop-color:#0FB3C6"/>
		<stop  offset="1" style="stop-color:#4CE2B9"/>
	</linearGradient>
	<path class="st17" d="M14.73,28.16c0-0.6,0.03-1.1,0.1-1.49c0.06-0.39,0.18-0.7,0.34-0.92c0.16-0.22,0.38-0.38,0.66-0.47
		c0.28-0.09,0.63-0.14,1.06-0.14c0.42,0,0.77,0.04,1.05,0.14c0.28,0.09,0.5,0.25,0.66,0.47c0.16,0.23,0.27,0.53,0.34,0.92
		c0.07,0.39,0.1,0.89,0.1,1.49c0,0.6-0.03,1.1-0.1,1.48c-0.07,0.39-0.18,0.69-0.34,0.92c-0.16,0.22-0.38,0.38-0.66,0.47
		c-0.28,0.09-0.63,0.14-1.05,0.14c-0.43,0-0.78-0.05-1.06-0.14c-0.28-0.09-0.5-0.25-0.66-0.47c-0.16-0.23-0.27-0.53-0.34-0.92
		C14.76,29.26,14.73,28.77,14.73,28.16z M15.98,30.01h1.16c0.24,0,0.41-0.04,0.51-0.13c0.09-0.09,0.14-0.24,0.14-0.45v-3.12h-1.18
		c-0.24,0-0.4,0.04-0.49,0.13c-0.09,0.09-0.14,0.24-0.14,0.45V30.01z"/>
	<linearGradient id="SVGID_19_" gradientUnits="userSpaceOnUse" x1="29.5724" y1="28.1593" x2="34.9658" y2="28.1593">
		<stop  offset="0" style="stop-color:#F61059"/>
		<stop  offset="0" style="stop-color:#0FB3C6"/>
		<stop  offset="1" style="stop-color:#4CE2B9"/>
	</linearGradient>
	<path class="st18" d="M29.57,31.04l0.31-5.76h1.51l0.85,3.64h0.05l0.85-3.64h1.5l0.31,5.76h-1.15l-0.19-3.69h-0.05l-0.85,3.69
		h-0.91l-0.85-3.69h-0.05l-0.2,3.69H29.57z"/>
	<linearGradient id="SVGID_20_" gradientUnits="userSpaceOnUse" x1="45.6901" y1="28.1593" x2="48.8537" y2="28.1593">
		<stop  offset="0" style="stop-color:#F61059"/>
		<stop  offset="0" style="stop-color:#0FB3C6"/>
		<stop  offset="1" style="stop-color:#4CE2B9"/>
	</linearGradient>
	<path class="st19" d="M46.85,28.67v1.23h1.99v1.13h-3.16v-5.76h3.16l-0.15,1.13h-1.85v1.24h1.71v1.02H46.85z"/>
</g>
</svg>
